<?xml version="1.0" standalone="no"?>
<!DOCTYPE svg PUBLIC "-//W3C//DTD SVG 20010904//EN"
 "http://www.w3.org/TR/2001/REC-SVG-20010904/DTD/svg10.dtd">
<svg version="1.0" xmlns="http://www.w3.org/2000/svg"
 width="120.000000pt" height="120.000000pt" viewBox="0 0 120.000000 120.000000"
 preserveAspectRatio="xMidYMid meet">
<metadata>
Created by potrace 1.11, written by Peter Selinger 2001-2013
</metadata>
<g transform="translate(0.000000,120.000000) scale(0.100000,-0.100000)"
fill="#000000" stroke="none">
<path d="M844 1044 c-104 -64 -201 -124 -216 -135 -15 -10 -29 -19 -32 -19 -2
0 -76 -44 -163 -98 -87 -53 -188 -115 -225 -137 -37 -22 -68 -45 -68 -51 0 -6
66 -30 148 -53 81 -24 170 -50 199 -60 l52 -16 -45 -50 c-47 -51 -185 -202
-286 -312 -51 -55 -69 -83 -53 -83 2 0 39 21 80 48 42 26 84 52 93 57 10 6 71
44 136 85 66 41 134 84 152 95 242 149 443 282 441 290 -2 5 -41 20 -88 32
-46 12 -135 34 -197 50 l-112 29 36 39 c20 22 73 80 117 128 45 49 92 101 105
115 13 15 43 47 66 72 22 25 47 53 54 62 34 42 -20 18 -194 -88z"/>
</g>
</svg>
