<?xml version="1.0" encoding="UTF-8" standalone="no"?>
<svg width="1587px" height="584px" viewBox="0 0 1587 584" version="1.1" xmlns="http://www.w3.org/2000/svg" xmlns:xlink="http://www.w3.org/1999/xlink" xmlns:sketch="http://www.bohemiancoding.com/sketch/ns">
    <!-- Generator: Sketch 3.5.2 (25235) - http://www.bohemiancoding.com/sketch -->
    <title>logo</title>
    <desc>Created with Sketch.</desc>
    <defs></defs>
    <g id="Site" stroke="none" stroke-width="1" fill="none" fill-rule="evenodd" sketch:type="MSPage">
        <path d="M267.888164,239.438928 C262.058668,276.50756 256.113547,313.558628 250.368939,350.641896 C249.51859,356.135009 247.078778,358.724222 241.372223,358.23536 C237.887405,357.935309 234.357215,358.200232 230.847515,358.176813 C222.671877,358.125585 221.5332,356.836101 222.8197,348.575209 C224.786771,335.943831 226.870929,323.33148 228.902398,310.710347 C232.898011,285.876442 236.862889,261.038147 240.896555,236.210096 C242.53139,226.148903 242.598715,226.150367 253.019508,226.150367 L256.116474,226.150367 C269.912315,226.150367 269.976714,226.159149 267.888164,239.438928 M290.418738,191.022548 L229.685421,191.022548 C210.797735,195.413525 203.7637,209.346096 201.007751,226.465054 C193.942981,270.341164 187.036279,314.152873 180.252518,358.074357 C177.326793,377.014106 185.562439,388.616532 206.136186,393.00751 L255.713986,393.00751 C257.527379,393.00751 259.3437,392.509866 261.15563,392.16737 C272.693145,389.990908 281.290299,384.124563 285.909403,373.016853 C288.139921,367.652542 289.765974,362.149184 290.669012,356.432131 C297.484972,313.251259 304.245315,269.94744 311.014439,226.757786 C313.924065,208.192733 306.420216,192.486207 290.418738,191.022548 Z M885.350277,191.022108 L828.335955,191.022108 C811.712449,195.413086 803.602672,206.400775 800.628648,222.253667 C798.581079,233.168174 796.837938,244.208555 795.099188,255.17868 C789.620954,289.72689 783.989042,324.285347 778.879634,358.886249 C776.814502,372.868585 781.792187,389.920214 803.05236,392.515281 C803.648043,392.588464 804.2086,393.007071 804.78672,393.007071 L850.645525,393.007071 C851.631988,393.007071 852.603815,392.481617 853.607841,392.364524 C868.375509,390.652043 877.518583,382.43067 882.090853,368.517126 C885.012187,359.628324 885.988405,350.432154 887.44029,341.276966 C889.926937,325.595321 892.319914,309.919532 894.894377,294.253988 C895.64081,289.706399 894.035247,287.544575 889.443951,287.546038 C876.436987,287.551893 863.42856,287.587021 850.421595,287.535793 C846.20498,287.519692 843.912991,289.753236 842.968972,293.580705 C841.386827,299.988605 839.831026,306.408214 838.425975,312.855632 C837.079468,319.03081 838.259125,320.976013 844.595026,321.283382 C849.938609,321.543913 850.660161,323.774529 849.721997,328.426038 C848.174978,336.100003 847.108018,343.873497 845.959096,351.623572 C845.259498,356.343873 842.682108,358.264194 837.934207,358.215893 C819.24557,358.030008 819.706602,360.155241 822.6294,341.632635 C828.352054,305.377798 834.200578,269.144915 839.888106,232.885687 C840.61844,228.235642 842.620637,225.824996 847.579295,226.116264 C851.488556,226.346058 855.431479,226.33874 859.342204,226.119191 C864.631634,225.822068 865.743966,228.447873 864.887763,233.042299 C863.754941,239.123803 862.846049,245.246289 861.798115,251.343893 C860.922886,256.428645 863.014362,258.940284 868.164751,258.499722 C877.203911,257.72691 886.235752,256.873597 895.254421,255.8988 C898.635324,255.532885 901.05611,253.592073 901.676674,250.114419 C903.233938,241.392474 905.256626,232.581246 905.562517,223.693908 C906.213817,204.841978 902.380663,198.340404 885.350277,191.022108 Z M571.926791,192.273976 C563.254993,192.235921 554.583196,192.257876 545.912863,192.276903 C541.22936,192.287149 538.707587,194.708041 538.035797,199.29954 C537.23082,204.807289 536.320464,210.301866 535.45548,215.800833 C532.033596,237.537635 528.611712,259.272974 525.189828,281.008312 C524.762459,281.009776 524.336553,281.011239 523.909183,281.014167 C523.415952,279.251921 522.867104,277.502848 522.439734,275.725966 C516.569257,251.253585 510.738297,226.770959 504.847329,202.302969 C502.651937,193.185836 501.444472,192.273976 492.26188,192.232994 C488.13308,192.213966 484.002816,192.211039 479.874016,192.232994 C471.158311,192.279831 469.933283,193.589806 468.542868,202.461044 C461.743008,245.848292 454.839233,289.21944 447.969121,332.596442 C445.356604,349.093345 442.657736,365.57561 440.157917,382.088613 C438.908007,390.349505 439.856416,391.249655 448.491624,391.276001 C455.304656,391.296492 462.119152,391.292101 468.932184,391.277465 C477.719605,391.259901 478.754367,390.440252 480.155027,381.820763 C483.19784,363.094708 486.152837,344.354016 489.185404,325.626497 C490.76755,315.856573 492.437511,306.101284 494.067956,296.338678 C495.445198,297.230046 495.711572,297.988222 495.894522,298.766888 C502.477769,326.67155 509.156151,354.55572 515.547668,382.505756 C516.976136,388.754116 519.875517,391.911229 526.572925,391.350648 C531.083723,390.973024 535.661847,391.09158 540.191672,391.319911 C545.620144,391.593615 547.904815,389.038066 548.7215,383.842076 C558.388542,322.325946 568.169744,260.828843 577.9568,199.33174 C578.729578,194.470928 576.597121,192.294467 571.926791,192.273976 Z M773.822915,192.26534 C765.357485,192.243386 756.892054,192.297541 748.428088,192.243386 C743.11524,192.209721 740.659328,194.921882 739.933385,200.040298 C738.425883,210.654754 736.666642,221.234082 734.99229,231.823656 C732.397337,248.235666 729.786285,264.643285 727.18255,281.053832 C726.812261,281.097741 726.440508,281.141651 726.070219,281.185561 C725.522834,279.322323 724.897879,277.478112 724.442701,275.592919 C718.384884,250.52922 712.237787,225.486012 706.390727,200.374012 C705.019339,194.48132 701.919446,191.955045 696.012379,192.198012 C691.478163,192.383897 686.929312,192.21704 682.387778,192.231676 C673.132007,192.262413 671.981621,193.474323 670.559007,202.594383 C664.236279,243.136278 657.808172,283.660609 651.396165,324.187867 C648.335789,343.535977 645.145153,362.862132 642.176983,382.223416 C640.946101,390.260368 641.948663,391.236629 650.035022,391.27322 C657.055885,391.305421 664.075284,391.292248 671.094683,391.277611 C679.640611,391.258584 680.760261,390.463817 682.093595,382.298062 C685.61354,360.723726 688.981271,339.125972 692.469017,317.545782 C693.61062,310.477772 694.938101,303.439035 696.179229,296.385661 C697.907734,298.721661 698.494635,300.902513 699.011284,303.099466 C705.240342,329.603406 711.570388,356.086854 717.600397,382.637631 C719.037647,388.962102 722.121441,391.924549 728.735424,391.346403 C732.833489,390.987807 737.00766,391.031716 741.114506,391.336158 C747.242576,391.791356 749.925345,389.28118 750.88839,383.101611 C760.413463,321.982132 770.15222,260.894854 779.911468,199.811967 C780.723763,194.728679 778.919151,192.278513 773.822915,192.26534 Z M398.551732,240.522329 C395.536727,260.265627 392.17046,279.956234 389.301814,299.720023 C388.474884,305.412194 386.34389,307.961888 380.265582,307.991161 C362.43022,308.07459 362.553162,308.295602 365.49645,290.799021 C368.603661,272.324715 371.756244,253.846018 374.231182,235.280966 C375.096167,228.795492 377.82577,226.741978 383.797236,227.571873 C385.010555,227.741657 386.267783,227.596755 387.50452,227.596755 C402.788837,227.579191 400.632963,226.894199 398.551732,240.522329 Z M410.602968,192.264023 C400.694434,192.135221 390.782972,192.242068 380.872974,192.236214 C370.755145,192.228895 360.63878,192.217186 350.522415,192.231823 C340.831956,192.247923 339.852812,193.329567 338.357018,202.906289 C332.026972,243.445256 325.576911,283.96666 319.154659,324.490991 C316.120627,343.632725 312.985608,362.759823 310.032074,381.91473 C308.744111,390.266369 309.717402,391.247021 318.17405,391.27483 C325.81255,391.299712 333.452513,391.304103 341.091013,391.273367 C348.908071,391.24263 350.136026,390.098048 351.339101,382.185507 C352.951982,371.585687 354.825383,361.020996 356.152863,350.386048 C356.704638,345.978971 357.972111,343.702981 362.888325,343.653216 C367.62159,343.604915 370.586832,344.486038 371.696237,349.787412 C374.062869,361.089788 377.14959,372.239943 379.571838,383.532073 C380.763204,389.083732 383.328885,391.672946 389.281324,391.374359 C397.107164,390.982098 404.96813,391.324595 412.812996,391.264585 C420.531993,391.203111 421.638471,389.841908 419.776779,382.356755 C416.390021,368.744725 412.966673,355.140013 409.348668,341.589457 C408.359278,337.882008 408.531982,335.389397 412.514423,333.611051 C421.557973,329.569888 426.509313,322.037898 428.088532,312.597296 C432.849604,284.126199 437.789236,255.668274 441.660443,227.071301 C444.660812,204.910038 433.045726,192.553828 410.602968,192.264023 Z M637.245987,192.242654 C629.818245,192.189962 622.38904,192.207526 614.961298,192.235335 C606.427079,192.267536 605.001538,193.631666 603.712111,201.847185 C596.490736,247.854383 589.197644,293.849872 581.949925,339.852679 C579.608174,354.711747 577.358629,369.583987 575.008096,384.441591 C574.249954,389.22922 576.075056,391.452518 580.998588,391.297371 C585.532804,391.153932 590.075801,391.266634 594.615871,391.273952 C598.330474,391.279807 602.043613,391.291516 605.758216,391.278343 C614.331952,391.246142 615.333051,390.190844 616.688339,381.540619 C622.683222,343.267396 628.770312,305.008809 634.825202,266.745832 C638.273431,244.966584 641.794839,223.197581 645.139152,201.403696 C646.356863,193.472127 645.210868,192.298273 637.245987,192.242654 Z M1304.76903,229.5765 C1298.39361,269.928119 1292.01527,310.279738 1285.6179,350.62843 C1284.66071,356.674806 1283.28347,357.630576 1277.00172,357.694977 C1274.72876,357.718395 1272.91829,357.699368 1269.9911,357.699368 L1269.9911,357.583738 C1267.06391,357.583738 1263.93036,357.71254 1260.81583,357.548611 C1257.52567,357.375899 1256.26405,355.850766 1256.8568,352.219428 C1260.87583,327.58019 1264.76168,302.910215 1268.66216,278.251949 C1271.121,262.700571 1273.63545,247.153583 1276.05624,231.59635 C1277.09539,224.913282 1277.79938,224.220972 1284.40604,224.20048 C1289.66035,224.18438 1294.92343,224.137543 1300.17774,224.22829 C1304.72366,224.307327 1305.45839,225.211869 1304.76903,229.5765 Z M1323.54695,189.558596 L1267.26296,189.558596 C1250.18574,191.022255 1240.9929,202.771047 1237.32514,219.017663 C1236.66945,221.92449 1236.00351,224.744962 1235.53809,227.685453 C1228.78213,270.438936 1222.03935,313.14851 1215.35512,355.915167 C1214.60722,360.701332 1214.62186,365.969042 1215.40488,370.756671 C1217.45684,383.310475 1225.52417,390.079899 1237.41441,393.007217 L1295.40495,393.007217 C1313.36033,388.61624 1321.76868,377.389974 1325.04421,360.610586 C1325.20813,359.774836 1325.40571,358.732711 1325.5389,357.891107 C1332.56855,313.606636 1339.73284,269.235809 1346.50489,224.911819 C1347.9597,215.381934 1347.19571,205.991097 1340.25827,198.106365 C1335.7826,193.02015 1329.75698,191.022255 1323.54695,189.558596 Z M1066.80028,193.7612 C1063.39596,191.570102 1059.43547,191.022694 1055.77063,189.559035 L1003.75156,189.559035 C984.502363,191.022694 975.774949,204.968438 972.720428,222.839716 C969.711277,240.450463 966.096199,257.930945 964.856534,275.74514 C963.703222,292.318153 971.548088,305.132488 991.73252,306.400017 C1001.10245,306.988408 1010.4636,306.726413 1019.82914,306.831797 C1026.62315,306.907907 1026.94953,307.243085 1025.89428,313.845651 C1023.85842,326.588268 1021.70254,339.307466 1019.84817,352.076428 C1019.28176,355.978543 1017.22687,357.571005 1013.65716,357.622233 C1007.41054,357.711516 1001.16246,357.699807 994.915838,357.629551 C991.347594,357.588569 989.765449,355.72533 990.340641,352.121802 C991.368085,345.680238 992.309176,339.225501 993.395163,332.794183 C994.709471,325.016298 993.371746,323.580448 985.743491,324.359115 C978.268914,325.121681 970.776774,325.717391 963.28317,326.289681 C956.10424,326.838554 954.643572,328.690082 953.623447,335.771265 C952.714555,342.079636 950.928969,348.347025 950.928969,354.633441 L950.928969,370.837611 C952.392564,382.835225 960.395499,390.080338 972.197924,393.007656 L1029.33519,393.007656 C1037.56791,390.080338 1045.17274,388.143917 1050.7022,381.326193 C1055.40034,375.53303 1057.91626,368.507466 1059.26277,361.373591 C1062.94517,341.861551 1066.44755,322.176799 1068.23607,302.404228 C1069.18008,291.963947 1066.1563,282.274523 1056.43949,276.207656 C1051.63305,273.207155 1046.28069,271.788869 1040.6517,271.721541 C1030.9949,271.607376 1021.33811,271.638112 1011.67985,271.623476 C1008.61801,271.617621 1006.09185,270.859446 1006.68167,267.056859 C1008.68094,254.16495 1010.75632,241.280358 1012.88585,228.407476 C1013.33225,225.709952 1015.00953,224.200919 1017.92647,224.227265 C1023.32274,224.27703 1028.71902,224.215556 1034.11529,224.243366 C1037.12151,224.258002 1038.53827,225.524067 1037.96454,228.788027 C1036.90783,234.793421 1036.00625,240.826624 1035.15005,246.864218 C1034.26311,253.11697 1035.77208,254.665521 1041.93674,254.068348 C1050.40509,253.247235 1058.87492,252.436368 1067.34035,251.591837 C1072.26973,251.100047 1074.53977,249.176799 1075.30376,244.264759 C1076.56538,236.138523 1078.16509,228.092789 1078.55148,219.909471 C1079.04471,209.441381 1076.43366,199.96126 1066.80028,193.7612 Z M1209.06796,190.639947 C1200.40055,190.604819 1191.73314,190.617992 1183.06574,190.632629 C1176.34491,190.644338 1175.10232,191.903085 1174.05292,198.603716 C1170.40272,221.874433 1166.6325,245.126122 1162.96473,268.393912 C1162.61347,270.615747 1161.60798,271.634453 1159.33648,271.619817 C1152.37416,271.57298 1145.41038,271.552488 1138.44952,271.638844 C1136.00386,271.668117 1135.63064,270.61721 1136.00971,268.468559 C1136.87177,263.578473 1137.51575,258.651797 1138.30024,253.748538 C1141.26255,235.252278 1144.29073,216.76919 1147.19304,198.264148 C1148.23512,191.616208 1147.25743,190.642874 1140.33463,190.632629 C1132.09313,190.619456 1123.85163,190.622383 1115.61159,190.631165 C1108.06969,190.63702 1107.02176,191.724518 1105.85381,199.240408 C1101.49815,227.282654 1097.03565,255.308799 1092.61706,283.340799 C1087.31446,316.981541 1082.00015,350.620819 1076.73706,384.267416 C1075.90867,389.568789 1076.90098,390.698734 1082.1509,390.732398 C1090.67634,390.788017 1099.20177,390.752889 1107.72721,390.751426 C1116.19703,390.749962 1116.94493,389.956659 1118.22997,381.57721 C1121.867,357.87325 1125.66063,334.194173 1129.27571,310.488749 C1129.68552,307.801471 1130.89591,306.801792 1133.44257,306.819356 C1139.1257,306.855947 1144.80884,306.814965 1150.49198,306.814965 C1156.94497,306.814965 1156.8674,306.807646 1155.85312,313.199446 C1152.06973,337.023426 1148.32879,360.85326 1144.60247,384.686022 C1143.91019,389.119446 1145.23914,390.64897 1149.86263,390.72508 C1154.69249,390.804117 1159.52382,390.742644 1164.35514,390.745571 C1169.0445,390.748498 1173.73386,390.782163 1178.42175,390.739716 C1183.60434,390.692879 1184.86742,389.694664 1185.72216,384.46501 C1188.30833,368.639927 1190.81108,352.803135 1193.32114,336.966343 C1198.32078,305.43327 1203.30139,273.89727 1208.29518,242.362734 C1210.64864,227.506594 1213.07528,212.660699 1215.34092,197.791386 C1216.2264,191.974804 1214.96771,190.663366 1209.06796,190.639947 Z M1585.16183,104.079438 C1584.46223,103.299307 1583.46991,102.845573 1582.42198,102.826546 L1517.70329,101.851749 C1516.70219,101.834185 1516.00113,100.857924 1516.3041,99.9036182 L1528.81637,60.4623951 C1529.75892,57.4897034 1527.54158,54.4570016 1524.42266,54.4540743 L1471.57958,54.4043099 C1470.59751,54.4028463 1469.88327,53.471959 1470.13647,52.5220443 L1483.67911,1.88968335 C1484.10795,0.284049263 1481.99159,-0.718557253 1481.02123,0.629472822 L1422.5155,81.959157 C1420.3245,85.0035681 1422.49647,89.2496432 1426.24767,89.2554979 L1489.1793,89.3491721 C1490.19796,89.3506357 1490.91659,90.3459239 1490.59606,91.3134026 L1478.05891,129.236811 C1477.06513,132.241703 1479.2371,135.357834 1482.40139,135.451508 C1494.68681,135.82035 1521.25983,136.604871 1529.3857,136.729282 C1530.30191,136.742455 1530.98102,137.567959 1530.83027,138.471037 L1515.36886,194.435508 C1515.13176,194.949252 1514.91807,195.498124 1514.75415,196.121643 C1514.35752,197.632139 1513.89356,199.125072 1513.48082,200.631177 C1502.5507,240.473443 1491.63229,280.320099 1480.65972,320.152119 C1480.3187,321.390375 1480.57044,323.075047 1478.558,323.837613 C1477.84083,321.719698 1478.1921,319.619348 1478.28284,317.577543 C1479.35858,293.1842 1480.45774,268.79232 1481.57593,244.40044 C1482.29016,228.802225 1482.99708,213.204009 1483.80937,197.610185 C1484.08746,192.264901 1482.79949,190.663658 1477.36517,190.643167 C1466.8507,190.602185 1456.33624,190.619749 1445.82178,190.632921 C1438.9985,190.64024 1437.89495,191.505262 1436.08448,198.176621 C1426.86677,232.158395 1417.66076,266.144561 1408.4284,300.121944 C1406.28277,308.021312 1404.05518,315.897262 1401.57585,324.824119 C1400.16202,322.066586 1400.51036,320.482906 1400.57768,318.973874 C1401.32558,302.523809 1402.20666,286.081062 1402.90187,269.629533 C1403.90882,245.796771 1404.80601,221.961082 1405.71929,198.125393 C1405.9842,191.208139 1405.39584,190.644631 1398.33106,190.632921 C1389.52023,190.618285 1380.71085,190.619749 1371.90148,190.631458 C1364.68888,190.641703 1363.51069,191.855077 1363.40385,199.019688 C1363.13015,217.485212 1363.33067,235.950736 1362.96623,254.420651 C1362.11588,297.461012 1362.9033,340.518936 1361.93732,383.563688 C1361.80853,389.30416 1363.50483,390.725373 1369.42215,390.740009 C1382.0676,390.770746 1394.71306,390.7605 1407.35998,390.747327 C1413.89639,390.740009 1415.21802,389.768139 1417.02995,383.551979 C1425.21437,355.471678 1433.37683,327.385523 1441.55833,299.305222 C1442.83605,294.920099 1444.17231,290.554004 1445.48222,286.179127 C1446.30476,287.888681 1446.33111,289.42845 1446.30037,290.96822 C1445.67542,321.50015 1445.02412,352.032079 1444.43136,382.564009 C1444.28793,389.946706 1445.12511,390.738546 1452.31721,390.747327 C1464.67873,390.7605 1477.04025,390.761964 1489.40323,390.747327 C1496.28359,390.738546 1497.47203,389.734475 1499.5635,382.966515 C1512.18262,342.133353 1524.83978,301.311899 1537.47792,260.484591 C1542.84785,243.14023 1548.21338,225.794405 1553.56282,208.44419 L1553.58185,208.419307 L1586.81715,109.882846 C1587.18744,107.797132 1586.57566,105.657262 1585.16183,104.079438 Z M110.536391,382.543518 C109.453331,390.044771 110.650551,391.228871 118.268561,391.26839 C126.319794,391.3123 134.385663,390.985904 142.417869,391.37231 C148.518131,391.666505 150.953552,388.793342 151.803901,383.25632 C155.058935,362.062535 158.442765,340.889242 161.782688,319.708631 C167.787816,281.622756 173.797335,243.539809 179.806854,205.455398 C180.000048,204.233242 180.257641,203.019869 180.415709,201.793322 C181.511941,193.343618 180.654275,192.298566 172.335204,192.242947 C164.903071,192.191718 157.462157,192.44054 150.040269,192.1683 C143.59899,191.931187 139.805353,194.62432 137.191374,200.546285 C125.446028,227.16439 113.396255,253.649302 101.444542,280.176661 C101.258666,280.586485 101.05669,280.988992 100.781534,281.391498 C100.013147,282.512661 98.2539063,282.075027 98.0738841,280.726997 C97.0259505,272.871538 95.9633809,265.016079 94.9461827,257.15623 C92.4566086,237.938385 89.9362989,218.723468 87.568203,199.489523 C86.9842288,194.739949 84.4595284,192.387849 79.8901864,192.317593 C71.63405,192.191718 63.3749864,192.28832 55.1173864,192.266365 C49.7489219,192.251728 48.146286,195.828911 47.449615,200.25648 C44.8795431,216.54847 42.3387431,232.846315 39.7642804,249.139769 L0.105261089,473.370886 C-0.263564718,475.458064 0.348217771,477.597934 1.76205003,479.174295 C2.46164819,479.955889 3.45396524,480.409623 4.50189888,480.427187 L60.6541643,481.403448 C61.6552629,481.419548 62.3563247,482.395809 62.0533606,483.350114 L49.5410915,522.791337 C48.5970731,525.765493 50.8158823,528.798195 53.9348021,528.801122 L106.77788,528.849423 C107.759952,528.850886 108.474186,529.783237 108.220985,530.731688 L94.678345,581.364049 C94.2495118,582.969683 96.3658694,583.973754 97.3376961,582.62426 L155.841958,501.294576 C158.032959,498.250165 155.860985,494.004089 152.109792,493.998235 L89.1781569,493.906024 C88.1594952,493.904561 87.4408703,492.907809 87.7599339,491.941794 L100.298548,454.018385 C101.292328,451.012029 99.1203542,447.897363 95.9560629,447.802225 C83.6691874,447.433383 57.0976298,446.650325 48.9717533,446.525914 C48.0555431,446.511277 47.3764353,445.685774 47.5271855,444.782696 L70.9739689,306.46837 C71.3515763,304.886155 73.6494196,304.997393 73.9011579,306.60449 C75.5711192,317.281884 77.2469348,327.959277 78.8861606,338.641062 C79.527215,342.816881 79.9121404,347.324952 85.5235615,347.46839 C91.7467652,347.627929 98.7647007,349.412129 102.423687,341.888921 C108.292701,329.826906 114.008037,317.690245 119.798017,305.590175 L119.825825,305.530165 C120.570795,303.975759 122.921327,304.709052 122.650562,306.411287 C120.428826,320.384841 118.208553,334.359859 115.978035,348.331949 C114.158787,359.735317 112.187326,371.116731 110.536391,382.543518 Z" id="Fill-4" fill="#F8C023" sketch:type="MSShapeGroup"></path>
    </g>
</svg>